<svg width="20" height="24" viewBox="0 0 20 24" fill="none" xmlns="http://www.w3.org/2000/svg">
<path fill-rule="evenodd" clip-rule="evenodd" d="M10.981 2.39812C12.5088 0.38475 14.6324 0.375 14.6324 0.375C14.6324 0.375 14.9482 2.268 13.4305 4.09162C11.8102 6.03862 9.96817 5.72025 9.96817 5.72025C9.96817 5.72025 9.62242 4.18875 10.981 2.39812Z" fill="#111111"/>
<path fill-rule="evenodd" clip-rule="evenodd" d="M10.1627 7.0462C10.9487 7.0462 12.4071 5.96582 14.3057 5.96582C17.5738 5.96582 18.8593 8.2912 18.8593 8.2912C18.8593 8.2912 16.3449 9.57669 16.3449 12.6963C16.3449 16.2153 19.4773 17.4281 19.4773 17.4281C19.4773 17.4281 17.2877 23.5912 14.3301 23.5912C12.9718 23.5912 11.9154 22.6758 10.4844 22.6758C9.02607 22.6758 7.57857 23.6253 6.63582 23.6253C3.93507 23.6253 0.523315 17.7791 0.523315 13.0799C0.523315 8.45657 3.41119 6.03107 6.12019 6.03107C7.88044 6.0307 9.24694 7.0462 10.1627 7.0462Z" fill="#111111"/>
</svg>
