<svg width="24" height="24" viewBox="0 0 24 24" fill="none" xmlns="http://www.w3.org/2000/svg">
<path fill-rule="evenodd" clip-rule="evenodd" d="M3 12C3 7.02944 7.02944 3 12 3C16.9706 3 21 7.02944 21 12C21 16.9706 16.9706 21 12 21C7.02944 21 3 16.9706 3 12ZM12 1C5.92487 1 1 5.92487 1 12C1 18.0751 5.92487 23 12 23C18.0751 23 23 18.0751 23 12C23 5.92487 18.0751 1 12 1ZM16.3434 7.65642C16.7339 8.04694 16.7339 8.68011 16.3434 9.07063L13.4141 11.9999L16.3434 14.9291C16.7339 15.3197 16.7339 15.9528 16.3434 16.3434C15.9528 16.7339 15.3197 16.7339 14.9291 16.3434L11.9999 13.4141L9.07063 16.3434C8.68011 16.7339 8.04694 16.7339 7.65642 16.3434C7.26589 15.9528 7.26589 15.3197 7.65642 14.9291L10.5857 11.9999L7.65642 9.07063C7.26589 8.68011 7.26589 8.04694 7.65642 7.65642C8.04694 7.26589 8.68011 7.26589 9.07063 7.65642L11.9999 10.5857L14.9291 7.65642C15.3197 7.26589 15.9528 7.26589 16.3434 7.65642Z" fill="black" fill-opacity="0.45"/>
</svg>
