<svg width="20" height="18" viewBox="0 0 20 18" fill="none" xmlns="http://www.w3.org/2000/svg">
<path fill-rule="evenodd" clip-rule="evenodd" d="M9.99985 6.80005C8.27148 6.80005 6.90894 8.16426 6.90894 9.80005C6.90894 11.4358 8.27148 12.8 9.99985 12.8C11.7282 12.8 13.0908 11.4358 13.0908 9.80005C13.0908 8.16426 11.7282 6.80005 9.99985 6.80005ZM4.90894 9.80005C4.90894 7.01756 7.20952 4.80005 9.99985 4.80005C12.7902 4.80005 15.0908 7.01756 15.0908 9.80005C15.0908 12.5825 12.7902 14.8 9.99985 14.8C7.20952 14.8 4.90894 12.5825 4.90894 9.80005Z" fill="black" fill-opacity="0.45"/>
<path fill-rule="evenodd" clip-rule="evenodd" d="M6.71923 0.436663C6.9055 0.163459 7.21479 0 7.54545 0H12.4545C12.7852 0 13.0945 0.163459 13.2808 0.436663L14.6194 2.4H17.3636C18.0557 2.4 18.7238 2.66859 19.2198 3.15362C19.7167 3.6394 20 4.30309 20 5V15.4C20 16.0969 19.7167 16.7606 19.2198 17.2464C18.7238 17.7314 18.0557 18 17.3636 18H2.63636C1.94432 18 1.27621 17.7314 0.780162 17.2464C0.283348 16.7606 0 16.0969 0 15.4V5C0 4.30309 0.283347 3.6394 0.780162 3.15362C1.27621 2.66859 1.94432 2.4 2.63636 2.4H5.38059L6.71923 0.436663ZM8.07396 2L6.73532 3.96334C6.54904 4.23654 6.23976 4.4 5.90909 4.4H2.63636C2.46043 4.4 2.2961 4.46855 2.1784 4.58364C2.06146 4.69798 2 4.84821 2 5V15.4C2 15.5518 2.06146 15.702 2.1784 15.8164C2.2961 15.9315 2.46043 16 2.63636 16H17.3636C17.5396 16 17.7039 15.9315 17.8216 15.8164C17.9385 15.702 18 15.5518 18 15.4V5C18 4.84821 17.9385 4.69798 17.8216 4.58364C17.7039 4.46855 17.5396 4.4 17.3636 4.4H14.0909C13.7602 4.4 13.451 4.23654 13.2647 3.96334L11.926 2H8.07396Z" fill="black" fill-opacity="0.45"/>
<path d="M3.45417 6.6C3.90604 6.6 4.27235 6.24183 4.27235 5.8C4.27235 5.35817 3.90604 5 3.45417 5C3.0023 5 2.63599 5.35817 2.63599 5.8C2.63599 6.24183 3.0023 6.6 3.45417 6.6Z" fill="black" fill-opacity="0.45"/>
</svg>
