<svg width="24" height="24" viewBox="0 0 24 24" fill="none" xmlns="http://www.w3.org/2000/svg">
<path fill-rule="evenodd" clip-rule="evenodd" d="M7.80029 2C8.35258 2 8.80029 2.44772 8.80029 3V4.39996H15.1997V3C15.1997 2.44772 15.6474 2 16.1997 2C16.752 2 17.1997 2.44772 17.1997 3V4.39996H19.8C21.015 4.39996 22 5.38494 22 6.59996V10.1999V19.8C22 21.015 21.015 22 19.8 22H4.2C2.98497 22 2 21.015 2 19.8V10.1999V6.59996C2 5.38494 2.98497 4.39996 4.2 4.39996H6.80029V3C6.80029 2.44772 7.24801 2 7.80029 2ZM15.1997 6.39996V7.2C15.1997 7.75229 15.6474 8.2 16.1997 8.2C16.752 8.2 17.1997 7.75229 17.1997 7.2V6.39996H19.8C19.9105 6.39996 20 6.48951 20 6.59996V9.19989H4V6.59996C4 6.48951 4.08954 6.39996 4.2 6.39996H6.80029V7.2C6.80029 7.75229 7.24801 8.2 7.80029 8.2C8.35258 8.2 8.80029 7.75229 8.80029 7.2V6.39996H15.1997ZM20 11.1999V19.8C20 19.9104 19.9105 20 19.8 20H4.2C4.08954 20 4 19.9104 4 19.8V11.1999H20ZM7 12.5C6.80222 12.5 6.60888 12.5586 6.44443 12.6685C6.27998 12.7784 6.15181 12.9346 6.07612 13.1173C6.00043 13.3 5.98063 13.5011 6.01922 13.6951C6.0578 13.8891 6.15304 14.0673 6.29289 14.2071C6.43275 14.347 6.61093 14.4422 6.80491 14.4808C6.99889 14.5194 7.19996 14.4996 7.38268 14.4239C7.56541 14.3482 7.72159 14.22 7.83147 14.0556C7.94135 13.8911 8 13.6978 8 13.5C8 13.2348 7.89464 12.9804 7.70711 12.7929C7.51957 12.6054 7.26522 12.5 7 12.5ZM6.44443 16.8685C6.60888 16.7586 6.80222 16.7 7 16.7C7.26522 16.7 7.51957 16.8053 7.70711 16.9928C7.89464 17.1804 8 17.4347 8 17.7C8 17.8977 7.94135 18.0911 7.83147 18.2555C7.72159 18.42 7.56541 18.5481 7.38268 18.6238C7.19996 18.6995 6.99889 18.7193 6.80491 18.6807C6.61093 18.6422 6.43275 18.5469 6.29289 18.4071C6.15304 18.2672 6.0578 18.089 6.01922 17.895C5.98063 17.7011 6.00043 17.5 6.07612 17.3173C6.15181 17.1345 6.27998 16.9784 6.44443 16.8685ZM12.0996 12.5C11.9018 12.5 11.7085 12.5586 11.544 12.6685C11.3796 12.7784 11.2514 12.9346 11.1757 13.1173C11.1 13.3 11.0802 13.5011 11.1188 13.6951C11.1574 13.8891 11.2526 14.0673 11.3925 14.2071C11.5324 14.347 11.7105 14.4422 11.9045 14.4808C12.0985 14.5194 12.2996 14.4996 12.4823 14.4239C12.665 14.3482 12.8212 14.22 12.9311 14.0556C13.041 13.8911 13.0996 13.6978 13.0996 13.5C13.0996 13.2348 12.9943 12.9804 12.8067 12.7929C12.6192 12.6054 12.3648 12.5 12.0996 12.5ZM11.544 16.8685C11.7085 16.7586 11.9018 16.7 12.0996 16.7C12.3648 16.7 12.6192 16.8053 12.8067 16.9928C12.9943 17.1804 13.0996 17.4347 13.0996 17.7C13.0996 17.8977 13.041 18.0911 12.9311 18.2555C12.8212 18.42 12.665 18.5481 12.4823 18.6238C12.2996 18.6995 12.0985 18.7193 11.9045 18.6807C11.7105 18.6422 11.5324 18.5469 11.3925 18.4071C11.2526 18.2672 11.1574 18.089 11.1188 17.895C11.0802 17.7011 11.1 17.5 11.1757 17.3173C11.2514 17.1345 11.3796 16.9784 11.544 16.8685ZM17.2002 12.5C17.0024 12.5 16.8091 12.5586 16.6446 12.6685C16.4802 12.7784 16.352 12.9346 16.2763 13.1173C16.2006 13.3 16.1808 13.5011 16.2194 13.6951C16.258 13.8891 16.3532 14.0673 16.4931 14.2071C16.6329 14.347 16.8111 14.4422 17.0051 14.4808C17.1991 14.5194 17.4002 14.4996 17.5829 14.4239C17.7656 14.3482 17.9218 14.22 18.0317 14.0556C18.1415 13.8911 18.2002 13.6978 18.2002 13.5C18.2002 13.2348 18.0948 12.9804 17.9073 12.7929C17.7198 12.6054 17.4654 12.5 17.2002 12.5ZM16.6446 16.8685C16.8091 16.7586 17.0024 16.7 17.2002 16.7C17.4654 16.7 17.7198 16.8053 17.9073 16.9928C18.0948 17.1804 18.2002 17.4347 18.2002 17.7C18.2002 17.8977 18.1415 18.0911 18.0317 18.2555C17.9218 18.42 17.7656 18.5481 17.5829 18.6238C17.4002 18.6995 17.1991 18.7193 17.0051 18.6807C16.8111 18.6422 16.6329 18.5469 16.4931 18.4071C16.3532 18.2672 16.258 18.089 16.2194 17.895C16.1808 17.7011 16.2006 17.5 16.2763 17.3173C16.352 17.1345 16.4802 16.9784 16.6446 16.8685Z" fill="black" fill-opacity="0.45"/>
</svg>
