<svg width="24" height="24" viewBox="0 0 24 24" fill="none" xmlns="http://www.w3.org/2000/svg">
<g clip-path="url(#clip0_5_2449)">
<path fill-rule="evenodd" clip-rule="evenodd" d="M0.444573 23.8313C0.608982 23.9412 0.802281 23.9999 1.00003 23.9999C1.26523 23.9999 1.51954 23.8945 1.70703 23.7069L23.707 1.70692C23.8892 1.51832 23.99 1.26571 23.9877 1.00352C23.9854 0.741321 23.8803 0.490508 23.6948 0.3051C23.5094 0.119692 23.2586 0.0145233 22.9964 0.0122448C22.7342 0.00996641 22.4816 0.110761 22.293 0.292919L17.8284 4.75752C16.0845 3.66132 14.0718 3.05094 12 2.99988C6.29205 2.99988 2.10005 8.06188 0.55505 10.2399C0.192423 10.7551 -0.00219727 11.3698 -0.00219727 11.9999C-0.00219727 12.6299 0.192423 13.2446 0.55505 13.7599C1.68163 15.3658 3.024 16.8068 4.54306 18.0429L0.293031 22.2929C0.153222 22.4328 0.0580152 22.6109 0.0194476 22.8049C-0.0191199 22.9988 0.000683047 23.1999 0.0763531 23.3826C0.152023 23.5653 0.280163 23.7214 0.444573 23.8313ZM7.82781 14.7581L14.7568 7.82912C13.9446 7.292 12.9865 6.9995 11.9982 6.99957C10.672 6.99967 9.40022 7.52657 8.46255 8.46438C7.52488 9.40218 6.99815 10.6741 6.99824 12.0002C6.99829 12.6569 7.12767 13.3071 7.37901 13.9137C7.50158 14.2096 7.652 14.4923 7.82781 14.7581ZM23.4441 10.2389C22.6977 9.18795 21.8641 8.20179 20.9521 7.29089L16.9311 11.3119C16.9698 11.5394 16.9929 11.7692 17.0001 11.9999C17.0001 13.326 16.4733 14.5977 15.5356 15.5354C14.5979 16.4731 13.3261 16.9999 12.0001 16.9999C11.7694 16.9927 11.5395 16.9697 11.3121 16.9309L8.05505 20.1879C9.30369 20.7159 10.6444 20.9918 12.0001 20.9999C17.7081 20.9999 21.9051 15.9379 23.4451 13.7599C23.8078 13.2444 24.0023 12.6295 24.0022 11.9992C24.002 11.369 23.8071 10.7541 23.4441 10.2389Z" fill="black" fill-opacity="0.45"/>
</g>
<defs>
<clipPath id="clip0_5_2449">
<rect width="24" height="24" fill="white"/>
</clipPath>
</defs>
</svg>
