<svg width="20" height="20" viewBox="0 0 20 20" fill="none" xmlns="http://www.w3.org/2000/svg">
<path d="M18.3333 0H1.66667C0.745833 0 0 0.745833 0 1.66667V18.3333C0 19.2542 0.745833 20 1.66667 20H10.8333V12.5H8.33333V9.16667H10.8333V7.01083C10.8333 4.4275 12.4108 3.02083 14.7158 3.02083C15.82 3.02083 16.7683 3.10333 17.045 3.14V5.84L15.4467 5.84083C14.1933 5.84083 13.9508 6.43667 13.9508 7.31V9.16667H17.6508L16.8175 12.5H13.9508V20H18.3333C19.2542 20 20 19.2542 20 18.3333V1.66667C20 0.745833 19.2542 0 18.3333 0Z" fill="#4267B2"/>
</svg>
