<svg width="20" height="20" viewBox="0 0 20 20" fill="none" xmlns="http://www.w3.org/2000/svg">
<path d="M6.84932 20C5.11416 20 3.379 19.3687 2.00913 18.0158C0.730594 16.7531 0 15.0395 0 13.2356C0 11.4318 0.730594 9.71815 2.00913 8.45547L9.13242 1.42052C11.0502 -0.473506 14.2466 -0.473506 16.2557 1.42052C18.2648 3.31454 18.1735 6.47125 16.2557 8.45547L9.77169 14.8591C8.49315 16.1218 6.48402 16.1218 5.20548 14.8591C3.92694 13.5964 3.92694 11.6122 5.20548 10.3495L10.6849 4.93799C11.0502 4.57723 11.5982 4.57723 11.9635 4.93799C12.3288 5.29876 12.3288 5.83991 11.9635 6.20068L6.48402 11.6122C5.93607 12.1533 5.93607 12.965 6.48402 13.5062C7.03196 14.0473 7.85388 14.0473 8.40183 13.5062L14.8858 7.10259C15.5251 6.47125 15.7991 5.74972 15.7991 4.8478C15.7991 4.03608 15.4338 3.22435 14.8858 2.59301C13.6073 1.33033 11.5982 1.33033 10.411 2.59301L3.28767 9.62796C2.37443 10.5299 1.82648 11.7926 1.82648 13.1454C1.82648 14.4983 2.37443 15.6708 3.28767 16.6629C5.20548 18.5569 8.40183 18.5569 10.411 16.6629L18.4475 8.72604C18.8128 8.36528 19.3607 8.36528 19.726 8.72604C20.0913 9.08681 20.0913 9.62796 19.726 9.98872L11.6895 17.9256C10.411 19.3687 8.6758 20 6.84932 20Z" fill="black" fill-opacity="0.45"/>
</svg>
